<svg width="24" height="40" viewBox="0 0 24 40" fill="none" xmlns="http://www.w3.org/2000/svg">
<path d="M11.9341 9C13.0176 9 14.0568 9.52678 14.8229 10.4645C15.5891 11.4021 16.0195 12.6739 16.0195 14C16.0195 14.6566 15.9138 15.3068 15.7085 15.9134C15.5032 16.52 15.2023 17.0712 14.8229 17.5355C14.4436 17.9998 13.9932 18.3681 13.4975 18.6194C13.0019 18.8707 12.4706 19 11.9341 19C10.8506 19 9.81151 18.4732 9.04535 17.5355C8.2792 16.5979 7.84878 15.3261 7.84878 14C7.84878 12.6739 8.2792 11.4021 9.04535 10.4645C9.81151 9.52678 10.8506 9 11.9341 9ZM11.9341 0C14.968 0 17.8775 1.475 20.0228 4.1005C22.168 6.72601 23.3732 10.287 23.3732 14C23.3732 24.5 11.9341 40 11.9341 40C11.9341 40 0.495117 24.5 0.495117 14C0.495117 10.287 1.7003 6.72601 3.84553 4.1005C5.99076 1.475 8.90032 0 11.9341 0ZM11.9341 4C9.76713 4 7.68887 5.05357 6.15656 6.92893C4.62425 8.8043 3.76341 11.3478 3.76341 14C3.76341 16 3.76341 20 11.9341 33.42C20.1049 20 20.1049 16 20.1049 14C20.1049 11.3478 19.244 8.8043 17.7117 6.92893C16.1794 5.05357 14.1012 4 11.9341 4Z" fill="#A6A182"/>
</svg>
