<svg width="14" height="15" viewBox="0 0 14 15" fill="none" xmlns="http://www.w3.org/2000/svg">
<path d="M6.99967 0.333336C10.6817 0.333336 13.6663 3.318 13.6663 7C13.6663 10.682 10.6817 13.6667 6.99967 13.6667C3.31767 13.6667 0.333008 10.682 0.333008 7C0.333008 3.318 3.31767 0.333336 6.99967 0.333336ZM6.99967 3C6.82286 3 6.65329 3.07024 6.52827 3.19526C6.40325 3.32029 6.33301 3.48986 6.33301 3.66667V7C6.33305 7.1768 6.40331 7.34634 6.52834 7.47134L8.52834 9.47134C8.65408 9.59277 8.82248 9.65997 8.99728 9.65845C9.17207 9.65693 9.33928 9.58682 9.46289 9.46321C9.58649 9.33961 9.6566 9.1724 9.65812 8.9976C9.65964 8.82281 9.59245 8.6544 9.47101 8.52867L7.66634 6.724V3.66667C7.66634 3.48986 7.5961 3.32029 7.47108 3.19526C7.34606 3.07024 7.17649 3 6.99967 3Z" fill="black"/>
</svg>
