<svg width="16" height="16" viewBox="0 0 16 16" fill="none" xmlns="http://www.w3.org/2000/svg">
<path d="M1.33331 5.99967C1.33331 4.74234 1.33331 4.11434 1.72398 3.72367C2.11465 3.33301 2.74265 3.33301 3.99998 3.33301H12C13.2573 3.33301 13.8853 3.33301 14.276 3.72367C14.6666 4.11434 14.6666 4.74234 14.6666 5.99967C14.6666 6.31367 14.6666 6.47101 14.5693 6.56901C14.4713 6.66634 14.3133 6.66634 14 6.66634H1.99998C1.68598 6.66634 1.52865 6.66634 1.43065 6.56901C1.33331 6.47101 1.33331 6.31301 1.33331 5.99967ZM1.33331 11.9997C1.33331 13.257 1.33331 13.885 1.72398 14.2757C2.11465 14.6663 2.74265 14.6663 3.99998 14.6663H12C13.2573 14.6663 13.8853 14.6663 14.276 14.2757C14.6666 13.885 14.6666 13.257 14.6666 11.9997V8.66634C14.6666 8.35234 14.6666 8.19501 14.5693 8.09701C14.4713 7.99967 14.3133 7.99967 14 7.99967H1.99998C1.68598 7.99967 1.52865 7.99967 1.43065 8.09701C1.33331 8.19501 1.33331 8.35301 1.33331 8.66634V11.9997Z" fill="#E08E00"/>
<path d="M4.66663 2V4V2ZM11.3333 2V4V2Z" fill="#E08E00"/>
<path d="M4.66663 2V4M11.3333 2V4" stroke="#E08E00" stroke-width="1.33333" stroke-linecap="round"/>
</svg>
