<svg width="63" height="63" viewBox="0 0 63 63" fill="none" xmlns="http://www.w3.org/2000/svg">
<circle cx="31.5" cy="31.5" r="31.25" stroke="white" stroke-width="0.5"/>
<path d="M31.8167 29.1259V28.3778H34.0617V38.887H32.7783C32.5243 38.8874 32.2804 38.7874 32.1002 38.6089C31.9199 38.4303 31.818 38.1878 31.8167 37.9345C30.8797 38.619 29.7481 38.9887 28.5867 38.9867C27.1356 38.9867 25.744 38.412 24.7176 37.389C23.6913 36.3659 23.1142 34.9782 23.1133 33.531C23.1142 32.0837 23.6913 30.6961 24.7176 29.673C25.744 28.65 27.1356 28.0753 28.5867 28.0753C29.7475 28.0736 30.8802 28.4417 31.8167 29.1259ZM22.5317 25V25.3408C22.5317 25.9758 22.4467 26.4944 22.0317 27.1028L21.9817 27.1593C21.8435 27.3141 21.7091 27.4721 21.5783 27.6331L14.3733 36.6528H22.5317V37.9295C22.5317 38.0554 22.5068 38.18 22.4584 38.2963C22.4101 38.4125 22.3392 38.5182 22.2499 38.6071C22.1606 38.696 22.0546 38.7665 21.9379 38.8146C21.8212 38.8626 21.6962 38.8872 21.57 38.887H11V38.2852C11 37.5488 11.1833 37.2197 11.4167 36.8772L19.0967 27.3937H11.32V25H22.5317ZM36.7833 38.887C36.5712 38.887 36.3677 38.8029 36.2176 38.6533C36.0676 38.5036 35.9833 38.3007 35.9833 38.0891V25H38.385V38.887H36.7833ZM45.4883 28.0088C46.2119 28.0086 46.9285 28.1505 47.597 28.4265C48.2656 28.7025 48.8732 29.1071 49.385 29.6172C49.8968 30.1274 50.3028 30.7331 50.5799 31.3998C50.857 32.0665 50.9998 32.781 51 33.5027C51.0002 34.2244 50.8579 34.9391 50.5812 35.6059C50.3045 36.2728 49.8988 36.8787 49.3873 37.3892C48.8758 37.8997 48.2685 38.3047 47.6001 38.581C46.9317 38.8574 46.2152 38.9998 45.4917 39C44.0303 39.0004 42.6287 38.4219 41.595 37.3915C40.5614 36.3612 39.9804 34.9636 39.98 33.5061C39.9796 32.0485 40.5597 30.6505 41.5927 29.6196C42.6257 28.5886 44.027 28.0092 45.4883 28.0088ZM28.5883 36.7409C29.0172 36.7507 29.4438 36.6748 29.8429 36.5178C30.242 36.3608 30.6056 36.1259 30.9124 35.8268C31.2192 35.5277 31.463 35.1704 31.6294 34.776C31.7959 34.3816 31.8816 33.9581 31.8816 33.5302C31.8816 33.1023 31.7959 32.6787 31.6294 32.2843C31.463 31.8899 31.2192 31.5326 30.9124 31.2335C30.6056 30.9344 30.242 30.6995 29.8429 30.5425C29.4438 30.3855 29.0172 30.3097 28.5883 30.3194C27.7472 30.3385 26.947 30.6851 26.3589 31.2852C25.7709 31.8853 25.4416 32.691 25.4416 33.5302C25.4416 34.3693 25.7709 35.1751 26.3589 35.7751C26.947 36.3752 27.7472 36.7218 28.5883 36.7409ZM45.4883 36.7359C46.3481 36.7359 47.1726 36.3953 47.7805 35.7889C48.3885 35.1826 48.73 34.3602 48.73 33.5027C48.73 32.6452 48.3885 31.8229 47.7805 31.2165C47.1726 30.6102 46.3481 30.2695 45.4883 30.2695C44.6286 30.2695 43.8041 30.6102 43.1961 31.2165C42.5882 31.8229 42.2467 32.6452 42.2467 33.5027C42.2467 34.3602 42.5882 35.1826 43.1961 35.7889C43.8041 36.3953 44.6286 36.7359 45.4883 36.7359Z" fill="white"/>
</svg>
