<svg width="40" height="28" viewBox="0 0 40 28" fill="none" xmlns="http://www.w3.org/2000/svg">
<path d="M1.99998 24H26C26.5097 24.0006 27 24.1958 27.3707 24.5457C27.7414 24.8956 27.9645 25.3739 27.9943 25.8828C28.0242 26.3917 27.8586 26.8928 27.5315 27.2837C27.2043 27.6746 26.7402 27.9258 26.234 27.986L26 28H1.99998C1.49022 27.9994 0.999917 27.8042 0.629245 27.4543C0.258573 27.1044 0.0355116 26.6261 0.00563734 26.1172C-0.0242369 25.6083 0.141331 25.1072 0.468511 24.7163C0.795692 24.3254 1.25979 24.0742 1.76598 24.014L1.99998 24ZM1.99998 12H38C38.5097 12.0006 39 12.1958 39.3707 12.5457C39.7414 12.8956 39.9644 13.3739 39.9943 13.8828C40.0242 14.3917 39.8586 14.8928 39.5315 15.2837C39.2043 15.6746 38.7402 15.9258 38.234 15.986L38 16H1.99998C1.49022 15.9994 0.999917 15.8042 0.629245 15.4543C0.258573 15.1044 0.0355116 14.6261 0.00563734 14.1172C-0.0242369 13.6083 0.141331 13.1072 0.468511 12.7163C0.795692 12.3254 1.25979 12.0742 1.76598 12.014L1.99998 12ZM1.99998 0H32C32.5097 0.000565415 33 0.195758 33.3707 0.545696C33.7414 0.895635 33.9644 1.37391 33.9943 1.88279C34.0242 2.39167 33.8586 2.89276 33.5315 3.28366C33.2043 3.67457 32.7402 3.92579 32.234 3.986L32 4H1.99998C1.49022 3.99943 0.999917 3.80424 0.629245 3.4543C0.258573 3.10437 0.0355116 2.62609 0.00563734 2.11721C-0.0242369 1.60833 0.141331 1.10724 0.468511 0.716335C0.795692 0.325429 1.25979 0.0742072 1.76598 0.0139999L1.99998 0Z" fill="white"/>
</svg>
