<svg width="18" height="21" viewBox="0 0 18 21" fill="none" xmlns="http://www.w3.org/2000/svg">
<path fill-rule="evenodd" clip-rule="evenodd" d="M15 4.66045e-09C15.7652 -4.26217e-05 16.5015 0.292325 17.0583 0.817284C17.615 1.34224 17.9501 2.06011 17.995 2.824L18 3V17C17.9999 17.1665 17.9583 17.3303 17.8789 17.4766C17.7995 17.623 17.6849 17.7471 17.5453 17.8379C17.4058 17.9287 17.2457 17.9832 17.0798 17.9965C16.9139 18.0098 16.7472 17.9814 16.595 17.914L16.475 17.852L13.75 16.174L11.024 17.852C10.8844 17.9378 10.7258 17.9879 10.5622 17.9981C10.3987 18.0082 10.2351 17.9779 10.086 17.91L9.976 17.852L7.25 16.174L4.524 17.852C4.38113 17.9399 4.21843 17.9905 4.05089 17.9991C3.88334 18.0077 3.71633 17.9739 3.56524 17.901C3.41414 17.8281 3.28382 17.7184 3.18627 17.5819C3.08871 17.4454 3.02707 17.2866 3.007 17.12L3 17V11H1C0.755067 11 0.518663 10.91 0.335628 10.7473C0.152593 10.5845 0.0356572 10.3603 0.007 10.117L2.96809e-08 10V2.5C-9.77163e-05 1.86528 0.241233 1.25429 0.67504 0.790955C1.10885 0.327621 1.70265 0.0466376 2.336 0.00500012L2.5 4.66045e-09H15ZM12 9H8C7.73478 9 7.48043 9.10536 7.29289 9.29289C7.10536 9.48043 7 9.73478 7 10C7 10.2652 7.10536 10.5196 7.29289 10.7071C7.48043 10.8946 7.73478 11 8 11H12C12.2652 11 12.5196 10.8946 12.7071 10.7071C12.8946 10.5196 13 10.2652 13 10C13 9.73478 12.8946 9.48043 12.7071 9.29289C12.5196 9.10536 12.2652 9 12 9ZM2.5 2C2.36739 2 2.24021 2.05268 2.14645 2.14645C2.05268 2.24021 2 2.36739 2 2.5V9H3V2.5C3 2.36739 2.94732 2.24021 2.85355 2.14645C2.75979 2.05268 2.63261 2 2.5 2ZM13 5H8C7.74512 5.00028 7.49997 5.09788 7.31463 5.27285C7.1293 5.44782 7.01776 5.68695 7.00283 5.94139C6.98789 6.19584 7.07067 6.44638 7.23426 6.64183C7.39785 6.83729 7.6299 6.9629 7.883 6.993L8 7H13C13.2549 6.99972 13.5 6.90212 13.6854 6.72715C13.8707 6.55218 13.9822 6.31305 13.9972 6.05861C14.0121 5.80416 13.9293 5.55362 13.7657 5.35817C13.6021 5.16271 13.3701 5.0371 13.117 5.007L13 5Z" fill="black"/>
</svg>
