<svg width="20" height="16" viewBox="0 0 20 16" fill="none" xmlns="http://www.w3.org/2000/svg">
<path d="M4.5 14.725L5.5 12.25C5.65 11.8667 5.89167 11.5623 6.225 11.337C6.55833 11.1117 6.93333 10.9993 7.35 11H9V6.975C6.45 6.89167 4.31233 6.51667 2.587 5.85C0.861667 5.18333 -0.00066628 4.4 3.8625e-07 3.5C3.8625e-07 2.53333 0.975001 1.70833 2.925 1.025C4.875 0.341667 7.23333 0 10 0C12.7833 0 15.146 0.341667 17.088 1.025C19.03 1.70833 20.0007 2.53333 20 3.5C20 4.4 19.1373 5.18333 17.412 5.85C15.6867 6.51667 13.5493 6.89167 11 6.975V11H12.65C13.05 11 13.421 11.1127 13.763 11.338C14.105 11.5633 14.3507 11.8673 14.5 12.25L15.5 14.725C15.6333 15.025 15.604 15.3127 15.412 15.588C15.22 15.8633 14.9577 16.0007 14.625 16C14.4417 16 14.275 15.95 14.125 15.85C13.975 15.75 13.8583 15.6083 13.775 15.425L12.8 13H7.2L6.225 15.425C6.14167 15.6083 6.025 15.75 5.875 15.85C5.725 15.95 5.55833 16 5.375 16C5.04167 16 4.77933 15.8623 4.588 15.587C4.39667 15.3117 4.36733 15.0243 4.5 14.725Z" fill="black"/>
</svg>
