<svg width="24" height="24" viewBox="0 0 24 24" fill="none" xmlns="http://www.w3.org/2000/svg">
<path d="M12.5575 0.960701C12.5575 0.960701 11.95 1.27073 11.3431 1.72729C11.0397 1.95558 10.7326 2.22042 10.4898 2.52544C10.2469 2.8304 10.049 3.19256 10.0791 3.61603C10.1126 4.08665 10.4316 4.43714 10.7719 4.64728C11.1122 4.85737 11.4986 4.9845 11.8625 5.10989C12.2264 5.23528 12.568 5.35894 12.7846 5.49276C13.0013 5.62654 13.0683 5.71322 13.0791 5.86603C13.0804 5.88337 13.0595 5.976 12.9566 6.10523C12.8538 6.23447 12.6882 6.3832 12.5151 6.51351C12.1688 6.774 11.8075 6.9607 11.8075 6.9607L12.1923 7.71145C12.1923 7.71145 12.6061 7.5008 13.0223 7.18767C13.2304 7.03111 13.4431 6.8489 13.6167 6.63079C13.7904 6.41259 13.9445 6.14142 13.9207 5.80612C13.8873 5.3355 13.5682 4.98501 13.2279 4.77487C12.8876 4.56473 12.5013 4.43765 12.1374 4.31226C11.7734 4.18687 11.4319 4.06322 11.2152 3.92939C10.9985 3.79556 10.9316 3.70894 10.9207 3.55612C10.9132 3.45056 10.9778 3.267 11.1498 3.05095C11.3218 2.83486 11.5818 2.60334 11.8503 2.40136C12.3873 1.99744 12.9423 1.71145 12.9423 1.71145L12.5575 0.960701ZM6.5575 3.2107C6.5575 3.2107 5.95 3.52073 5.34311 3.97729C5.03969 4.20558 4.73257 4.47042 4.48975 4.77544C4.24694 5.0804 4.04903 5.44256 4.07913 5.86603C4.1126 6.33665 4.43163 6.68714 4.77194 6.89728C5.11221 7.10737 5.4986 7.2345 5.86249 7.35989C6.22643 7.48528 6.56796 7.60894 6.78461 7.74276C7.00132 7.87654 7.0683 7.96322 7.07913 8.11603C7.08039 8.13337 7.05954 8.226 6.95664 8.35523C6.85375 8.48447 6.68824 8.6332 6.51508 8.76351C6.16877 9.024 5.8075 9.2107 5.8075 9.2107L6.19235 9.96145C6.19235 9.96145 6.60607 9.7508 7.02232 9.43767C7.23044 9.28111 7.44307 9.0989 7.61674 8.88075C7.79041 8.66259 7.94454 8.39137 7.92072 8.05612C7.88725 7.5855 7.56822 7.23501 7.22791 7.02487C6.8876 6.81473 6.50125 6.68765 6.13736 6.56226C5.77343 6.43687 5.43189 6.31322 5.21524 6.17939C4.99853 6.04556 4.93155 5.95894 4.92072 5.80612C4.91322 5.70056 4.97777 5.517 5.14975 5.30095C5.32178 5.08486 5.58185 4.85334 5.85035 4.65136C6.38725 4.24744 6.94235 3.96145 6.94235 3.96145L6.5575 3.2107ZM18.5575 3.2107C18.5575 3.2107 17.95 3.52073 17.3431 3.97729C17.0397 4.20558 16.7326 4.47042 16.4898 4.77544C16.2469 5.0804 16.049 5.44256 16.0791 5.86603C16.1126 6.33665 16.4316 6.68714 16.7719 6.89728C17.1122 7.10737 17.4986 7.2345 17.8625 7.35989C18.2264 7.48528 18.568 7.60894 18.7846 7.74276C19.0013 7.87654 19.0683 7.96322 19.0791 8.11603C19.0804 8.13337 19.0595 8.226 18.9566 8.35523C18.8538 8.48447 18.6882 8.6332 18.5151 8.76351C18.1688 9.024 17.8075 9.2107 17.8075 9.2107L18.1923 9.96145C18.1923 9.96145 18.6061 9.7508 19.0223 9.43767C19.2304 9.28111 19.4431 9.0989 19.6167 8.88075C19.7904 8.66259 19.9445 8.39137 19.9207 8.05612C19.8873 7.5855 19.5682 7.23501 19.2279 7.02487C18.8876 6.81473 18.5013 6.68765 18.1374 6.56226C17.7734 6.43687 17.4319 6.31322 17.2152 6.17939C16.9985 6.04556 16.9315 5.95894 16.9207 5.80612C16.9132 5.70056 16.9778 5.517 17.1498 5.30095C17.3218 5.08486 17.5818 4.85334 17.8503 4.65136C18.3873 4.24744 18.9423 3.96145 18.9423 3.96145L18.5575 3.2107ZM11.9999 8.78911C11.3906 8.78911 10.9784 9.06633 10.6634 9.53883C10.533 9.73444 10.4278 9.96539 10.3487 10.2169C10.8793 10.1415 11.4301 10.1018 11.9999 10.1018C12.5698 10.1018 13.1205 10.1415 13.6512 10.2169C13.5721 9.96539 13.4668 9.73444 13.3364 9.53883C13.0214 9.06633 12.6093 8.78911 11.9999 8.78911ZM11.9999 10.9454C6.40178 10.9454 2.9178 14.9784 2.69336 19.1018H21.3065C21.082 14.9784 17.598 10.9453 11.9999 10.9453V10.9454ZM1.04819 19.3191L0.45166 19.9156C1.30104 20.765 2.24993 20.7891 2.99993 20.7891H20.9999C21.7499 20.7891 22.6988 20.765 23.5482 19.9156L22.9517 19.3191C22.301 19.9696 21.7499 19.9455 20.9999 19.9455H2.99993C2.24993 19.9455 1.69877 19.9696 1.04819 19.3191ZM5.28808 21.6329L6.22568 23.0393H17.7742L18.7118 21.6329H5.28808Z" fill="black"/>
</svg>
