<svg width="36" height="36" viewBox="0 0 36 36" fill="none" xmlns="http://www.w3.org/2000/svg">
<path d="M27.9091 22.6601L33.2051 27.9561C33.375 28.1253 33.5098 28.3263 33.6019 28.5476C33.6939 28.769 33.7412 29.0064 33.7412 29.2461C33.7412 29.4859 33.6939 29.7233 33.6019 29.9446C33.5098 30.166 33.375 30.367 33.2051 30.5361C31.3428 32.3988 28.871 33.5271 26.2437 33.7137C23.6164 33.9004 21.01 33.1328 18.9031 31.5521L15.7531 29.1881C12.266 26.5728 9.16838 23.4752 6.55309 19.9881L4.18909 16.8381C2.60838 14.7313 1.84087 12.1248 2.02752 9.49749C2.21416 6.87018 3.34242 4.39841 5.20509 2.53614C5.3742 2.36622 5.57522 2.23138 5.7966 2.13937C6.01798 2.04736 6.25535 2 6.49509 2C6.73482 2 6.9722 2.04736 7.19358 2.13937C7.41495 2.23138 7.61597 2.36622 7.78509 2.53614L13.0811 7.83214C13.456 8.20719 13.6667 8.71581 13.6667 9.24614C13.6667 9.77647 13.456 10.2851 13.0811 10.6601L11.0391 12.7021C10.8797 12.8599 10.7745 13.0642 10.7385 13.2856C10.7026 13.507 10.7378 13.734 10.8391 13.9341C13.2119 18.6807 17.0606 22.5293 21.8071 24.9021C22.0072 25.0034 22.2343 25.0386 22.4556 25.0027C22.677 24.9668 22.8813 24.8615 23.0391 24.7021L25.0791 22.6621C25.2648 22.4762 25.4854 22.3287 25.7282 22.228C25.971 22.1274 26.2313 22.0756 26.4941 22.0756C26.7569 22.0756 27.0172 22.1274 27.26 22.228C27.5028 22.3287 27.7233 22.4762 27.9091 22.6621V22.6601Z" stroke="#A6A182" stroke-width="4"/>
</svg>
