<svg width="16" height="16" viewBox="0 0 16 16" fill="none" xmlns="http://www.w3.org/2000/svg">
<path d="M5.00033 12.2C4.85534 12.2 4.71526 12.1475 4.60599 12.0522C4.49672 11.9569 4.42565 11.8253 4.40593 11.6816L4.40033 11.6V4.40001C4.40038 4.24799 4.45813 4.10166 4.56191 3.99058C4.66569 3.8795 4.80777 3.81195 4.95944 3.80159C5.1111 3.79123 5.26105 3.83882 5.37897 3.93476C5.4969 4.03069 5.57401 4.16781 5.59473 4.31841L5.60033 4.40001V11.6C5.60033 11.7591 5.53712 11.9118 5.4246 12.0243C5.31207 12.1368 5.15946 12.2 5.00033 12.2ZM11.6243 12.024C11.5227 12.1256 11.3881 12.1874 11.2448 12.1981C11.1015 12.2088 10.9591 12.1678 10.8435 12.0824L10.7763 12.024L7.17633 8.42401C7.07472 8.32242 7.01294 8.18774 7.00222 8.04445C6.9915 7.90116 7.03256 7.75879 7.11793 7.64321L7.17633 7.57601L10.7763 3.97601C10.8835 3.86965 11.0269 3.80762 11.1778 3.8023C11.3287 3.79699 11.4761 3.84878 11.5905 3.94734C11.705 4.0459 11.778 4.18398 11.7951 4.33403C11.8122 4.48407 11.7721 4.63504 11.6827 4.75681L11.6243 4.82401L8.44833 8.00001L11.6243 11.176C11.7367 11.2885 11.7998 11.441 11.7998 11.6C11.7998 11.759 11.7367 11.9115 11.6243 12.024Z" fill="black"/>
</svg>
