<svg width="16" height="16" viewBox="0 0 16 16" fill="none" xmlns="http://www.w3.org/2000/svg">
<path d="M10.9997 3.79999C11.1447 3.79999 11.2847 3.8525 11.394 3.9478C11.5033 4.0431 11.5743 4.17474 11.5941 4.31839L11.5997 4.39999V11.6C11.5996 11.752 11.5419 11.8983 11.4381 12.0094C11.3343 12.1205 11.1922 12.188 11.0406 12.1984C10.8889 12.2088 10.739 12.1612 10.621 12.0652C10.5031 11.9693 10.426 11.8322 10.4053 11.6816L10.3997 11.6V4.39999C10.3997 4.24086 10.4629 4.08825 10.5754 3.97572C10.6879 3.8632 10.8405 3.79999 10.9997 3.79999ZM4.37567 3.97599C4.47726 3.87437 4.61194 3.81259 4.75523 3.80187C4.89852 3.79116 5.04089 3.83222 5.15647 3.91759L5.22367 3.97599L8.82367 7.57599C8.92528 7.67758 8.98706 7.81226 8.99778 7.95555C9.0085 8.09884 8.96744 8.24121 8.88207 8.35679L8.82367 8.42399L5.22367 12.024C5.11647 12.1304 4.9731 12.1924 4.82218 12.1977C4.67126 12.203 4.52388 12.1512 4.40947 12.0527C4.29505 11.9541 4.22201 11.816 4.20492 11.666C4.18783 11.5159 4.22795 11.365 4.31727 11.2432L4.37567 11.176L7.55167 7.99999L4.37567 4.82399C4.26331 4.71149 4.2002 4.55899 4.2002 4.39999C4.2002 4.24099 4.26331 4.08849 4.37567 3.97599Z" fill="black"/>
</svg>
