<svg width="48" height="48" viewBox="0 0 48 48" fill="none" xmlns="http://www.w3.org/2000/svg">
<path d="M44.856 29.6254L40.7112 25.9342C39.5112 24.8662 39.5112 23.1166 40.7112 22.0486L44.856 18.355C46.056 17.287 45.7368 16.2934 44.1456 16.1374L38.6496 15.6166C37.0608 15.4678 36.2016 14.0974 36.7512 12.5782L39.6672 4.45903C40.2144 2.93503 39.5448 2.38303 38.1816 3.22543L31.6992 7.23343C31.3779 7.43391 31.0191 7.56674 30.6447 7.62378C30.2703 7.68082 29.8883 7.66088 29.5218 7.56518C29.1554 7.46947 28.8124 7.30002 28.5137 7.06718C28.215 6.83434 27.967 6.54302 27.7848 6.21103L25.4376 2.02063C24.648 0.609427 23.3448 0.604627 22.5408 2.00143L20.3592 5.79343C19.5504 7.19743 17.7 7.79263 16.248 7.12783L12.408 5.36623C10.9488 4.69423 9.8328 5.46703 9.9192 7.08463L10.1256 10.9606C10.2144 12.5782 9.0192 14.2414 7.476 14.659L3.768 15.6526C2.2272 16.0702 1.944 17.2846 3.144 18.3526L7.2888 22.0462C8.4888 23.1142 8.4888 24.8638 7.2888 25.9318L3.144 29.6254C1.944 30.6934 2.2608 31.7302 3.8472 31.9222L8.8752 32.5318C10.4616 32.7238 11.3448 34.1398 10.8384 35.6782L8.2608 43.4974C7.7544 45.0358 8.4768 45.631 9.864 44.8294L15.7752 41.407C16.4647 41.0246 17.272 40.913 18.0394 41.0941C18.8067 41.2752 19.479 41.7359 19.9248 42.3862L22.3776 46.0798C23.2704 47.4214 24.612 47.3494 25.3536 45.9166L27.5112 41.7574C27.8704 41.0674 28.4849 40.545 29.2238 40.3015C29.9626 40.0581 30.7674 40.1129 31.4664 40.4542L35.628 42.535C37.0632 43.2478 38.1648 42.511 38.0784 40.8982L37.8696 37.0174C37.7856 35.3998 38.976 33.7414 40.524 33.3238L44.2272 32.3254C45.7728 31.9078 46.056 30.6934 44.856 29.6254ZM26.4 33.5998H21.6V28.7998H26.4V33.5998ZM26.4 26.3998H21.6V14.3998H26.4V26.3998Z" fill="#E08E00"/>
</svg>
