<svg width="60" height="60" viewBox="0 0 60 60" fill="none" xmlns="http://www.w3.org/2000/svg">
<circle cx="30" cy="30" r="30" fill="#A6A182"/>
<path d="M16.2568 15.9626C18.5188 10.5338 24.7392 12.5696 24.7392 12.5696C25.4932 11.2501 27.4536 8.72427 29.2632 9.17669C32.8823 8.2719 35.2951 11.0616 36.0491 12.5696C38.3111 11.2124 40.7615 12.0041 41.704 12.5696C42.6465 13.1351 44.5315 14.6054 44.5315 15.9626C44.5315 17.659 45.097 19.3556 43.4005 21.6175C42.0433 23.4271 39.0651 23.8795 37.7456 23.8795V27.838C36.8031 27.461 34.2395 26.707 31.5252 26.707C28.8108 26.707 24.7392 27.461 23.0428 27.838V27.2725C22.8543 27.2725 23.1559 27.0463 25.8702 26.1415C28.5846 25.2367 33.0331 25.3875 34.9181 25.576C34.9181 25.0105 30.3942 25.0105 29.2632 25.0105C28.3584 25.0105 24.7392 25.7645 23.0428 26.1415V24.445L25.8702 23.8795C26.3226 23.4271 32.0907 23.314 34.9181 23.314C33.1085 22.4092 29.6402 22.56 28.1322 22.7485C21.3463 24.1057 20.0268 23.691 20.2153 23.314C15.6913 21.9568 15.6913 17.8476 16.2568 15.9626Z" fill="white"/>
<path d="M21.3463 29.5345C21.3463 29.5345 21.3463 29.5345 21.3463 29.5345C21.2381 29.6426 21.0596 29.8212 20.7808 30.1C19.876 31.0048 21.1578 31.6079 21.9118 31.7964C22.8166 31.7964 24.1737 30.2885 24.7392 29.5345C26.5488 28.1773 27.7552 27.838 28.1322 27.838C29.9418 28.2904 31.1482 28.0265 31.5252 27.838H32.6561C34.4657 28.2904 34.9181 28.7805 34.9181 28.969L38.3111 31.7964H39.4421L40.0075 31.2309C40.4599 29.8738 39.819 29.9115 39.4421 30.1C39.4421 29.6476 39.819 29.5345 40.0075 29.5345C41.3647 29.0821 41.704 30.854 41.704 31.7964C41.2516 33.606 39.2536 34.0584 38.3111 34.0584C36.9539 34.9632 33.9756 32.9274 32.6561 31.7964H28.1322L24.7392 34.0584C22.4773 34.5108 20.7808 33.8699 20.2153 33.4929C19.6498 33.1159 18.6319 32.0227 19.0843 30.6655C19.5367 29.3083 20.7808 29.346 21.3463 29.5345C21.5891 29.2917 21.4767 29.4041 21.3463 29.5345Z" fill="white"/>
<path d="M27.5667 38.5824C25.7571 35.868 22.6657 35.9434 21.3463 36.3204C21.1578 36.5089 20.7808 36.999 20.7808 37.4514C20.7808 37.9038 21.1578 38.7709 21.3463 39.1479C21.9118 40.0903 23.382 41.9753 24.7392 41.9753H25.8702C26.3407 41.6918 27.4518 41.2949 28.1322 41.9753L29.2632 43.1063L23.6082 46.4993C22.2888 47.2533 19.876 48.9874 20.7808 49.8922C21.6856 50.797 23.7967 49.1382 24.7392 48.1957L30.3942 43.6718L33.2216 45.9338C34.5411 47.0648 37.4063 49.4398 38.3111 49.8922C39.2158 50.3446 39.819 50.0807 40.0075 49.8922V48.7612L37.7456 47.0648L30.9596 43.1063L32.6561 41.9753C33.1085 42.4277 34.7296 42.1638 35.4836 41.9753L36.0491 41.4098L40.0075 38.5824V38.0169H39.442L37.1801 39.7133L36.0491 40.2788H35.4836L37.1801 39.1479C37.7456 38.7709 38.9897 37.9038 39.442 37.4514C39.8944 36.999 39.6305 36.8859 39.442 36.8859L38.3111 37.4514C37.1801 38.3939 34.9181 40.1657 34.9181 39.7133C34.9181 39.261 35.6721 38.7709 36.0491 38.5824C36.9916 38.0169 38.8766 36.7728 38.8766 36.3204C38.8766 35.868 36.2376 37.6399 34.9181 38.5824C34.4657 39.0348 34.3526 38.7709 34.3526 38.5824L38.3111 35.7549V35.1894L36.0491 36.3204C31.9775 38.5824 31.7136 40.2788 32.0906 40.8443L31.5251 41.4098L30.9596 41.9753L30.3942 42.5408L27.5667 40.8443C28.0191 39.4871 27.7552 38.7709 27.5667 38.5824Z" fill="white"/>
</svg>
